<svg width="400" height="280" viewBox="0 0 400 280" fill="none" xmlns="http://www.w3.org/2000/svg">
  <path d="M0 16C0 7.16344 7.16344 0 16 0H384C392.837 0 400 7.16344 400 16V280H0V16Z" fill="#FFFFFF" fill-opacity="0.95" stroke="#3B82F6" stroke-opacity="0.3"/>
  
  <!-- Terminal Prompt -->
  <rect x="20" y="30" width="360" height="45" rx="8" fill="#3B82F6" fill-opacity="0.1" stroke="#3B82F6" stroke-opacity="0.2"/>
  <text x="35" y="58" fill="#1D4ED8" font-family="monospace" font-size="12">$ antigraviti --validate --schema=xml-first</text>
  
  <!-- Output Lines -->
  <rect x="20" y="100" width="340" height="4" rx="2" fill="#6B7280" fill-opacity="0.2"/>
  <rect x="20" y="115" width="220" height="4" rx="2" fill="#6B7280" fill-opacity="0.2"/>
  <rect x="20" y="130" width="310" height="4" rx="2" fill="#3B82F6" fill-opacity="0.6"/>
  <rect x="20" y="145" width="180" height="4" rx="2" fill="#6B7280" fill-opacity="0.2"/>
  <rect x="20" y="160" width="260" height="4" rx="2" fill="#6B7280" fill-opacity="0.2"/>
  <rect x="20" y="175" width="120" height="4" rx="2" fill="#10B981" fill-opacity="0.8"/>
  
  <!-- AI Pulse -->
  <circle cx="340" cy="220" r="40" fill="#3B82F6" fill-opacity="0.1"/>
  <circle cx="340" cy="220" r="25" fill="#3B82F6" fill-opacity="0.2"/>
  <path d="M325 220 Q332 205 340 220 T355 220" stroke="#1D4ED8" stroke-width="2" stroke-linecap="round"/>
</svg>
