<svg width="400" height="280" viewBox="0 0 400 280" fill="none" xmlns="http://www.w3.org/2000/svg">
  <path d="M0 16C0 7.16344 7.16344 0 16 0H384C392.837 0 400 7.16344 400 16V280H0V16Z" fill="#FFFFFF" fill-opacity="0.9" stroke="#6D28D9" stroke-opacity="0.2"/>
  
  <!-- Nav Bar -->
  <rect width="400" height="40" rx="0" fill="#6D28D9" fill-opacity="0.08"/>
  <rect x="20" y="15" width="40" height="10" rx="2" fill="#6D28D9"/>
  <rect x="280" y="18" width="30" height="4" rx="2" fill="#6B7280" fill-opacity="0.5"/>
  <rect x="320" y="18" width="30" height="4" rx="2" fill="#6B7280" fill-opacity="0.5"/>
  <rect x="360" y="18" width="20" height="4" rx="2" fill="#6B7280" fill-opacity="0.5"/>
  
  <!-- Hero Content -->
  <rect x="40" y="80" width="280" height="15" rx="4" fill="url(#grad_purple)"/>
  <rect x="40" y="110" width="200" height="12" rx="4" fill="#6B7280" fill-opacity="0.3"/>
  <rect x="40" y="135" width="140" height="12" rx="4" fill="#6B7280" fill-opacity="0.15"/>
  
  <!-- Button -->
  <rect x="40" y="180" width="100" height="35" rx="17.5" fill="#7B3FF3"/>
  
  <!-- Cards Mockup -->
  <rect x="260" y="150" width="110" height="100" rx="8" fill="#F3F4F6" stroke="#6D28D9" stroke-opacity="0.3"/>
  <rect x="275" y="165" width="80" height="40" rx="4" fill="#6D28D9" fill-opacity="0.1"/>
  
  <defs>
    <linearGradient id="grad_purple" x1="40" y1="80" x2="320" y2="80" gradientUnits="userSpaceOnUse">
      <stop stop-color="#7B3FF3"/>
      <stop offset="1" stop-color="#DB2777"/>
    </linearGradient>
  </defs>
</svg>
